<?xml version="1.0" encoding="UTF-8"?>
<svg version="1.1" xmlns="http://www.w3.org/2000/svg" width="506" height="105">
<path d="M0 0 C166.98 0 333.96 0 506 0 C506 34.65 506 69.3 506 105 C339.02 105 172.04 105 0 105 C0 70.35 0 35.7 0 0 Z " fill="#303030" transform="translate(0,0)"/>
<path d="M0 0 C1.62578979 -0.00809692 1.62578979 -0.00809692 3.28442383 -0.01635742 C15.41173981 0.08927322 30.68843941 1.02765211 40 9.875 C41.875 12.3125 41.875 12.3125 42.75 14.5625 C43.306875 15.42875 43.306875 15.42875 43.875 16.3125 C46.20216 16.68650786 48.53617862 17.02014733 50.875 17.3125 C53.8575045 21.78625675 53.35595651 26.06706808 52.875 31.3125 C51.26468758 35.97393068 49.1687507 38.81613332 44.875 41.3125 C41.5625 41.0625 41.5625 41.0625 38.875 40.3125 C38.545 39.3225 38.215 38.3325 37.875 37.3125 C37.215 37.3125 36.555 37.3125 35.875 37.3125 C35.63394531 38.05242187 35.39289063 38.79234375 35.14453125 39.5546875 C33.7026066 42.68699151 32.16811643 44.20411449 29.5625 46.4375 C28.80324219 47.10007813 28.04398437 47.76265625 27.26171875 48.4453125 C24.89603113 50.29604684 22.48220329 51.82662485 19.875 53.3125 C20.0915625 54.364375 20.0915625 54.364375 20.3125 55.4375 C20.88978375 58.38806141 21.39195141 61.34520151 21.875 64.3125 C20.555 64.3125 19.235 64.3125 17.875 64.3125 C16.4143715 61.66511084 15.875 60.41801666 15.875 57.3125 C5.975 57.3125 -3.925 57.3125 -14.125 57.3125 C-14.785 59.2925 -15.445 61.2725 -16.125 63.3125 C-16.455 63.9725 -16.785 64.6325 -17.125 65.3125 C-18.445 64.9825 -19.765 64.6525 -21.125 64.3125 C-20.45329194 60.5061543 -19.39753436 56.96043184 -18.125 53.3125 C-18.69347656 52.96058594 -19.26195312 52.60867187 -19.84765625 52.24609375 C-25.27796922 48.77395708 -29.74165167 45.02368879 -34.125 40.3125 C-34.785 39.6525 -35.445 38.9925 -36.125 38.3125 C-36.516875 38.8075 -36.90875 39.3025 -37.3125 39.8125 C-39.125 41.3125 -39.125 41.3125 -41.5 41.8125 C-45.35284449 41.07862486 -46.68491668 39.33049779 -49.125 36.3125 C-52.00662925 31.04607414 -52.7872324 27.17798697 -52.125 21.3125 C-50.4375 18.3125 -50.4375 18.3125 -48.125 16.3125 C-45.4375 15.9375 -45.4375 15.9375 -43.125 16.3125 C-42.795 16.6425 -42.465 16.9725 -42.125 17.3125 C-41.91875 16.425625 -41.7125 15.53875 -41.5 14.625 C-39.3546715 9.45670862 -35.86427922 7.25460958 -31.125 4.6875 C-29.80474365 4.19275726 -28.46869825 3.73949208 -27.125 3.3125 C-26.25230469 3.03277344 -25.37960938 2.75304688 -24.48046875 2.46484375 C-16.31367481 0.2997874 -8.4151635 0.02566144 0 0 Z " fill="#F4DF85" transform="translate(55.125,30.6875)"/>
<path d="M0 0 C19 0 19 0 25 3 C28.63122502 7.20788409 28.4529674 11.44435528 28.43359375 16.73828125 C28.4388356 17.57787888 28.44407745 18.4174765 28.44947815 19.28251648 C28.45588626 21.05511371 28.45457704 22.82775352 28.44604492 24.6003418 C28.43755958 27.29358965 28.46627135 29.98469714 28.49804688 32.67773438 C28.49965987 34.40624937 28.49907948 36.13476808 28.49609375 37.86328125 C28.51294472 39.05743401 28.51294472 39.05743401 28.53013611 40.27571106 C28.46355901 45.69833151 27.54992936 50.7161049 24 55 C19 57 19 57 0 57 C0 38.19 0 19.38 0 0 Z " fill="#FAFAFA" transform="translate(228,7)"/>
<path d="M0 0 C3.08624627 2.13097956 4.06611335 3.39827535 5.625 6.8125 C6.05848472 9.98131793 6.04555189 13.11805308 6.0234375 16.3125 C6.02630768 17.22580078 6.02917786 18.13910156 6.03213501 19.08007812 C6.03417189 21.00651674 6.02866835 22.93297622 6.01611328 24.859375 C6.00005426 27.80255524 6.0159747 30.7443623 6.03515625 33.6875 C6.03317375 35.56250302 6.02932994 37.43750519 6.0234375 39.3125 C6.03254654 40.62831055 6.03254654 40.62831055 6.0418396 41.97070312 C5.98703914 46.74785552 5.71062859 49.92556841 2.625 53.8125 C-1.384151 57.32050713 -4.97221796 58.17228356 -10.3125 58.09375 C-14.61841263 57.5065801 -17.39213876 55.05039918 -20.01586914 51.74584961 C-21.91394999 47.64930903 -21.82397315 44.03094184 -21.80859375 39.56640625 C-21.8138356 38.67767319 -21.81907745 37.78894012 -21.82447815 36.87327576 C-21.83088682 34.99812868 -21.82957633 33.12294135 -21.82104492 31.24780273 C-21.812538 28.38777653 -21.84130654 25.5297508 -21.87304688 22.66992188 C-21.87465921 20.8437506 -21.87408074 19.0175758 -21.87109375 17.19140625 C-21.88232773 16.34123428 -21.89356171 15.49106232 -21.90513611 14.61512756 C-21.84194439 9.1974975 -20.95913673 6.12052846 -17.375 1.8125 C-12.25228296 -2.57840032 -6.06821956 -2.13511429 0 0 Z " fill="#F8F8F8" transform="translate(460.375,7.1875)"/>
<path d="M0 0 C3.08624627 2.13097956 4.06611335 3.39827535 5.625 6.8125 C6.05848472 9.98131793 6.04555189 13.11805308 6.0234375 16.3125 C6.02630768 17.22580078 6.02917786 18.13910156 6.03213501 19.08007812 C6.03417189 21.00651674 6.02866835 22.93297622 6.01611328 24.859375 C6.00005426 27.80255524 6.0159747 30.7443623 6.03515625 33.6875 C6.03317375 35.56250302 6.02932994 37.43750519 6.0234375 39.3125 C6.03254654 40.62831055 6.03254654 40.62831055 6.0418396 41.97070312 C5.98703914 46.74785552 5.71062859 49.92556841 2.625 53.8125 C-0.67879467 56.70332033 -3.26584818 57.72879043 -7.6875 58.0625 C-11.80504024 57.78334473 -13.9504061 57.0955626 -17.375 54.8125 C-21.66493171 49.74044765 -21.96691433 45.81496369 -21.90625 39.46875 C-21.9100769 38.58143188 -21.91390381 37.69411377 -21.91784668 36.77990723 C-21.92055911 34.91071432 -21.91324489 33.04148302 -21.89648438 31.17236328 C-21.87506441 28.32107436 -21.89630801 25.47230487 -21.921875 22.62109375 C-21.9192316 20.79947364 -21.91410638 18.97785509 -21.90625 17.15625 C-21.91434692 16.30921509 -21.92244385 15.46218018 -21.93078613 14.58947754 C-21.84576939 9.18833428 -20.94266221 6.10893258 -17.375 1.8125 C-12.25228296 -2.57840032 -6.06821956 -2.13511429 0 0 Z " fill="#F8F8F8" transform="translate(216.375,7.1875)"/>
<path d="M0 0 C3.08016477 2.05344318 4.96224665 3.83492922 6.18432617 7.36621094 C6.83407255 10.88096087 6.82881375 14.39021411 6.86328125 17.953125 C6.871353 18.74974548 6.87942474 19.54636597 6.88774109 20.36712646 C6.90154888 22.05153244 6.91228576 23.73596602 6.92016602 25.42041016 C6.93167445 27.13305938 6.9521084 28.84567306 6.98168945 30.55810547 C7.0246026 33.04419101 7.04056745 35.52921393 7.05078125 38.015625 C7.06828934 38.77111633 7.08579742 39.52660767 7.10383606 40.30499268 C7.08163066 45.8249272 5.77974218 50.17060571 2.625 54.75 C-1.2250306 57.55002225 -4.74840045 58.29296576 -9.41796875 58.10546875 C-13.45296781 57.37256473 -16.11201444 54.93322792 -19.01806641 52.21069336 C-21.15768493 48.33066185 -20.80271295 44.4881075 -20.7734375 40.12890625 C-20.77630768 39.19199448 -20.77917786 38.2550827 -20.78213501 37.28977966 C-20.7841745 35.31028641 -20.77865267 33.33077295 -20.76611328 31.35131836 C-20.75007609 28.32685058 -20.76595667 25.30372279 -20.78515625 22.27929688 C-20.78317345 20.35416372 -20.779329 18.42903141 -20.7734375 16.50390625 C-20.77951019 15.60168839 -20.78558289 14.69947052 -20.7918396 13.76991272 C-20.73795639 8.94025003 -20.5186234 5.66735761 -17.375 1.75 C-12.23696171 -2.63244443 -6.04381004 -2.23844816 0 0 Z " fill="#F8F8F8" transform="translate(183.375,7.25)"/>
<path d="M0 0 C0.5 2.375 0.5 2.375 0 5 C-3.51300302 8.33928309 -6.75337567 9.84272808 -11.375 11.1875 C-12.45523438 11.51105469 -13.53546875 11.83460937 -14.6484375 12.16796875 C-30.6009192 16.12820022 -51.66844655 16.64983041 -67 10 C-69.96572395 8.16728915 -72.53622983 6.46377017 -75 4 C-74.67734208 0.66586817 -73.49880447 -0.86768685 -71 -3 C-50.65318206 -12.80695685 -19.07097659 -12.71398439 0 0 Z " fill="#32302A" transform="translate(93,44)"/>
<path d="M0 0 C3.96 0 7.92 0 12 0 C14.64 9.9 17.28 19.8 20 30 C20.33 20.1 20.66 10.2 21 0 C23.64 0 26.28 0 29 0 C29 18.81 29 37.62 29 57 C25.7 57 22.4 57 19 57 C18.61328125 55.51371094 18.2265625 54.02742188 17.828125 52.49609375 C17.30210602 50.47655659 16.77606305 48.45702568 16.25 46.4375 C15.99734375 45.46619141 15.7446875 44.49488281 15.484375 43.49414062 C13.35445028 35.32055449 11.17646964 27.16176115 9 19 C8.67 31.54 8.34 44.08 8 57 C5.36 57 2.72 57 0 57 C0 38.19 0 19.38 0 0 Z " fill="#FAFAFA" transform="translate(328,7)"/>
<path d="M0 0 C3.96 0 7.92 0 12 0 C12.77181164 2.91641077 13.54246159 5.83312097 14.3125 8.75 C14.52583984 9.55566406 14.73917969 10.36132812 14.95898438 11.19140625 C16.69736705 17.78169279 18.34653509 24.38614038 20 31 C20.33 20.77 20.66 10.54 21 0 C23.64 0 26.28 0 29 0 C29 18.81 29 37.62 29 57 C25.7 57 22.4 57 19 57 C17.89689877 52.73171116 16.79421295 48.46331527 15.69189453 44.19482422 C15.31765684 42.74590225 14.9433101 41.29700843 14.56884766 39.84814453 C14.02737482 37.75300563 13.48630796 35.65776222 12.9453125 33.5625 C12.62062988 32.30566406 12.29594727 31.04882812 11.96142578 29.75390625 C10.95897725 25.83982586 9.97994383 21.9197753 9 18 C8.67 30.87 8.34 43.74 8 57 C5.36 57 2.72 57 0 57 C0 38.19 0 19.38 0 0 Z " fill="#FAFAFA" transform="translate(472,7)"/>
<path d="M0 0 C1.01707031 0.46019531 2.03414062 0.92039063 3.08203125 1.39453125 C14.00786636 6.0442299 25.54637105 6.27939758 37.25 6.3125 C38.42135498 6.31789795 39.59270996 6.3232959 40.79956055 6.32885742 C51.07491348 6.24562395 60.63769471 5.38235567 70 1 C70.99 1 71.98 1 73 1 C70.4183993 10.78290791 66.0608147 17.39440796 57.32421875 22.6796875 C56.17373047 23.33324219 56.17373047 23.33324219 55 24 C54.34644531 24.41507813 53.69289062 24.83015625 53.01953125 25.2578125 C44.98654983 29.70158946 34.51716325 29.17611384 25.73828125 27.3046875 C16.09304895 24.10306227 7.54726133 17.69793445 2.7421875 8.625 C0 2.64204545 0 2.64204545 0 0 Z " fill="#272725" transform="translate(19,55)"/>
<path d="M0 0 C2.97 0 5.94 0 9 0 C9.02505615 1.41853271 9.0501123 2.83706543 9.07592773 4.29858398 C9.16980881 9.54103271 9.27007589 14.78334291 9.37231445 20.02563477 C9.41573665 22.29838836 9.45740616 24.57117613 9.49731445 26.84399414 C9.55484119 30.10313232 9.61858552 33.36209731 9.68359375 36.62109375 C9.70030624 37.64400009 9.71701874 38.66690643 9.73423767 39.72080994 C9.75418289 40.66170975 9.77412811 41.60260956 9.79467773 42.57202148 C9.81022202 43.40475082 9.8257663 44.23748016 9.84178162 45.09544373 C9.79428614 47.00966585 9.79428614 47.00966585 11 48 C12.99958364 48.04080783 15.00045254 48.04254356 17 48 C18.17559215 45.6488157 18.15516463 44.17282086 18.20532227 41.55029297 C18.22526749 40.62948944 18.24521271 39.70868591 18.26576233 38.75997925 C18.28247482 37.76410797 18.29918732 36.76823669 18.31640625 35.7421875 C18.33718735 34.72399933 18.35796844 33.70581116 18.37937927 32.6567688 C18.44489466 29.39624945 18.50376902 26.13564794 18.5625 22.875 C18.60568332 20.66796017 18.64929755 18.46092872 18.69335938 16.25390625 C18.80057805 10.83602499 18.90234074 5.41806154 19 0 C21.64 0 24.28 0 27 0 C27.07620013 6.72600022 27.12866292 13.45188868 27.16479492 20.17822266 C27.17986116 22.46537435 27.20031797 24.75249725 27.22631836 27.03955078 C27.26279606 30.33112707 27.27974834 33.62232062 27.29296875 36.9140625 C27.30845261 37.93303619 27.32393646 38.95200989 27.33988953 40.00186157 C27.34116875 45.42459026 27.11866557 49.34675296 24 54 C20.62833366 57.05055526 17.97411596 58.27403455 13.5 58.5 C9.02588404 58.27403455 6.37166634 57.05055526 3 54 C-0.69616204 48.48509156 -0.39010841 43.30670489 -0.29296875 36.9140625 C-0.28872391 35.85714203 -0.28447906 34.80022156 -0.28010559 33.71127319 C-0.26336702 30.3489186 -0.22572289 26.98717221 -0.1875 23.625 C-0.17244697 21.33985243 -0.15875964 19.05469543 -0.14648438 16.76953125 C-0.11347914 11.17945459 -0.06172935 5.58983028 0 0 Z " fill="#FCFCFC" transform="translate(295,7)"/>
<path d="M0 0 C3.54938795 1.88607644 5.5678612 3.48902027 6.9296875 7.2421875 C7.125 10.2578125 7.125 10.2578125 7.0546875 13.4921875 C7.03664063 14.56984375 7.01859375 15.6475 7 16.7578125 C6.97679687 17.57765625 6.95359375 18.3975 6.9296875 19.2421875 C4.2896875 19.2421875 1.6496875 19.2421875 -1.0703125 19.2421875 C-1.4003125 15.6121875 -1.7303125 11.9821875 -2.0703125 8.2421875 C-4.06985996 8.19964394 -6.07072886 8.20137967 -8.0703125 8.2421875 C-9.49857236 9.4420974 -9.49857236 9.4420974 -9.18383789 12.93579102 C-9.18367874 14.58090042 -9.17798238 16.22601481 -9.16796875 17.87109375 C-9.16584633 19.16743996 -9.16584633 19.16743996 -9.16368103 20.48997498 C-9.15806489 23.26158042 -9.14550969 26.0331063 -9.1328125 28.8046875 C-9.12779958 30.6790353 -9.12323631 32.55338435 -9.11914062 34.42773438 C-9.10809022 39.03258294 -9.0908148 43.63737171 -9.0703125 48.2421875 C-7.07076504 48.28473106 -5.06989614 48.28299533 -3.0703125 48.2421875 C-1.33074592 46.50262092 -1.69840864 44.0485253 -1.5078125 41.6796875 C-1.38212891 40.16181641 -1.38212891 40.16181641 -1.25390625 38.61328125 C-1.19332031 37.83082031 -1.13273437 37.04835937 -1.0703125 36.2421875 C1.5696875 36.2421875 4.2096875 36.2421875 6.9296875 36.2421875 C7.79046901 50.20597637 7.79046901 50.20597637 4.6796875 53.9921875 C0.25283851 57.61415486 -2.20172147 58.66766979 -8.11328125 58.4921875 C-12.09541153 57.98349221 -14.34825906 55.92475887 -17.17773438 53.25 C-19.88233784 48.95166219 -19.64537319 45.28777234 -19.6015625 40.3046875 C-19.60730286 38.86814819 -19.60730286 38.86814819 -19.61315918 37.40258789 C-19.6158757 35.38198798 -19.60853273 33.36135274 -19.59179688 31.34082031 C-19.57038369 28.25245575 -19.59160751 25.16641743 -19.6171875 22.078125 C-19.61454418 20.11197405 -19.60941911 18.14582453 -19.6015625 16.1796875 C-19.60965942 15.25873291 -19.61775635 14.33777832 -19.62609863 13.38891602 C-19.56438524 9.15809792 -19.4547934 6.854427 -17.16088867 3.20166016 C-12.27848057 -1.374564 -6.32511031 -2.31522906 0 0 Z " fill="#F7F7F7" transform="translate(382.0703125,6.7578125)"/>
<path d="M0 0 C7.92 0 15.84 0 24 0 C24 2.64 24 5.28 24 8 C19.05 8 14.1 8 9 8 C9 13.61 9 19.22 9 25 C12.96 25 16.92 25 21 25 C21 27.97 21 30.94 21 34 C17.04 34 13.08 34 9 34 C9 41.59 9 49.18 9 57 C6.03 57 3.06 57 0 57 C0 38.19 0 19.38 0 0 Z " fill="#FAFAFA" transform="translate(135,7)"/>
<path d="M0 0 C9.24 0 18.48 0 28 0 C28 2.64 28 5.28 28 8 C25.03 8 22.06 8 19 8 C19 24.17 19 40.34 19 57 C16.03 57 13.06 57 10 57 C10 40.83 10 24.66 10 8 C6.7 8 3.4 8 0 8 C0 5.36 0 2.72 0 0 Z " fill="#FAFAFA" transform="translate(392,7)"/>
<path d="M0 0 C2.97 0 5.94 0 9 0 C9.0742768 6.72604977 9.12866276 13.4518596 9.16479492 20.17822266 C9.17986116 22.46537435 9.20031797 24.75249725 9.22631836 27.03955078 C9.26279606 30.33112707 9.27974834 33.62232062 9.29296875 36.9140625 C9.30845261 37.93303619 9.32393646 38.95200989 9.33988953 40.00186157 C9.34139113 46.36725398 8.85633594 51.13766335 4.140625 55.86328125 C1.49515639 57.26808301 -0.27285937 57.30501871 -3.25 57.1875 C-4.58804687 57.14689453 -4.58804687 57.14689453 -5.953125 57.10546875 C-6.62859375 57.07066406 -7.3040625 57.03585938 -8 57 C-8 54.36 -8 51.72 -8 49 C-5.69 48.34 -3.38 47.68 -1 47 C-0.67 31.49 -0.34 15.98 0 0 Z " fill="#F8F8F8" transform="translate(280,7)"/>
<path d="M0 0 C2.97 0 5.94 0 9 0 C9 18.81 9 37.62 9 57 C6.03 57 3.06 57 0 57 C0 38.19 0 19.38 0 0 Z " fill="#FAFAFA" transform="translate(424,7)"/>
<path d="M0 0 C2.64 0 5.28 0 8 0 C10.54086249 2.54086249 10.24715629 4.17235035 10.27789307 7.63841248 C10.2738446 8.4061348 10.26979614 9.17385712 10.265625 9.96484375 C10.26753845 10.75395645 10.2694519 11.54306915 10.27142334 12.35609436 C10.27278533 14.0263806 10.2690879 15.69667742 10.26074219 17.36694336 C10.2500568 19.9239077 10.26062939 22.48016718 10.2734375 25.03710938 C10.27211563 26.65885572 10.26955266 28.28060162 10.265625 29.90234375 C10.26967346 30.66804184 10.27372192 31.43373993 10.27789307 32.22264099 C10.244398 36.01649251 10.15604644 37.76593033 8 41 C5.36 41 2.72 41 0 41 C0 27.47 0 13.94 0 0 Z " fill="#363636" transform="translate(237,15)"/>
<path d="M0 0 C2.375 0.75 2.375 0.75 3.375 1.75 C3.47606874 4.62264056 3.51469672 7.47073628 3.5078125 10.34375 C3.50876923 11.20560913 3.50972595 12.06746826 3.51071167 12.95544434 C3.5113935 14.78133212 3.50953904 16.60722231 3.50537109 18.43310547 C3.50002286 21.23801078 3.50531599 24.04275595 3.51171875 26.84765625 C3.51105797 28.61718786 3.50977681 30.38671936 3.5078125 32.15625 C3.50983673 33.00102905 3.51186096 33.84580811 3.51394653 34.71618652 C3.48995031 40.63504969 3.48995031 40.63504969 2.375 41.75 C-0.5625 41.9375 -0.5625 41.9375 -3.625 41.75 C-6.19072747 39.18427253 -5.88290742 37.45855529 -5.92854309 33.9591217 C-5.92763168 33.1695256 -5.92672028 32.3799295 -5.92578125 31.56640625 C-5.93006638 30.7550975 -5.9343515 29.94378876 -5.93876648 29.1078949 C-5.944514 27.39054295 -5.94500694 25.67316665 -5.94067383 23.95581055 C-5.9375165 21.3262378 -5.96095748 18.69779269 -5.98632812 16.06835938 C-5.98860132 14.40104309 -5.98930452 12.73372377 -5.98828125 11.06640625 C-5.997491 10.27883438 -6.00670074 9.49126251 -6.01618958 8.67982483 C-5.97026329 3.2672435 -5.97026329 3.2672435 -4.26635742 0.71459961 C-2.625 -0.25 -2.625 -0.25 0 0 Z " fill="#3C3C3C" transform="translate(453.625,14.25)"/>
<path d="M0 0 C2.375 0.75 2.375 0.75 3.375 1.75 C3.47606874 4.62264056 3.51469672 7.47073628 3.5078125 10.34375 C3.50876923 11.20560913 3.50972595 12.06746826 3.51071167 12.95544434 C3.5113935 14.78133212 3.50953904 16.60722231 3.50537109 18.43310547 C3.50002286 21.23801078 3.50531599 24.04275595 3.51171875 26.84765625 C3.51105797 28.61718786 3.50977681 30.38671936 3.5078125 32.15625 C3.50983673 33.00102905 3.51186096 33.84580811 3.51394653 34.71618652 C3.48995031 40.63504969 3.48995031 40.63504969 2.375 41.75 C-0.5625 41.9375 -0.5625 41.9375 -3.625 41.75 C-6.19072747 39.18427253 -5.88290742 37.45855529 -5.92854309 33.9591217 C-5.92763168 33.1695256 -5.92672028 32.3799295 -5.92578125 31.56640625 C-5.93006638 30.7550975 -5.9343515 29.94378876 -5.93876648 29.1078949 C-5.944514 27.39054295 -5.94500694 25.67316665 -5.94067383 23.95581055 C-5.9375165 21.3262378 -5.96095748 18.69779269 -5.98632812 16.06835938 C-5.98860132 14.40104309 -5.98930452 12.73372377 -5.98828125 11.06640625 C-5.997491 10.27883438 -6.00670074 9.49126251 -6.01618958 8.67982483 C-5.97026329 3.2672435 -5.97026329 3.2672435 -4.26635742 0.71459961 C-2.625 -0.25 -2.625 -0.25 0 0 Z " fill="#303030" transform="translate(209.625,14.25)"/>
<path d="M0 0 C3.0625 0.25 3.0625 0.25 6 1 C7.60349894 4.20699788 7.1630236 7.69601209 7.16796875 11.21875 C7.17129715 12.03243042 7.17462555 12.84611084 7.17805481 13.68444824 C7.18312075 15.4060001 7.18546324 17.12756179 7.18530273 18.84912109 C7.18749123 21.48942123 7.20565567 24.12930497 7.22460938 26.76953125 C7.22754291 28.44010273 7.22952797 30.11067621 7.23046875 31.78125 C7.23765427 32.57398315 7.24483978 33.36671631 7.25224304 34.18347168 C7.22882682 39.77117318 7.22882682 39.77117318 5 42 C1.9375 42.1875 1.9375 42.1875 -1 42 C-3.09441119 39.90558881 -2.16414502 35.33334318 -2.16796875 32.44140625 C-2.17129715 31.58191879 -2.17462555 30.72243134 -2.17805481 29.8368988 C-2.1831277 28.01521339 -2.18546302 26.19351864 -2.18530273 24.37182617 C-2.18748803 21.5778071 -2.20563644 18.78418343 -2.22460938 15.99023438 C-2.2275434 14.22395969 -2.22952814 12.45768312 -2.23046875 10.69140625 C-2.23765427 9.85178848 -2.24483978 9.01217072 -2.25224304 8.14710999 C-2.22882181 2.22882181 -2.22882181 2.22882181 0 0 Z " fill="#2F2F2F" transform="translate(174,14)"/>
<path d="M0 0 C2.31 0 4.62 0 7 0 C9 2 9 2 9.125 4.375 C9.08375 5.24125 9.0425 6.1075 9 7 C9 8.32 9 9.64 9 11 C9 13.33333333 9 15.66666667 9 18 C8.01 18 7.02 18 6 18 C5.87625 16.865625 5.7525 15.73125 5.625 14.5625 C5.41875 13.386875 5.2125 12.21125 5 11 C4.34 10.67 3.68 10.34 3 10 C3 12.64 3 15.28 3 18 C2.01 17.67 1.02 17.34 0 17 C0 11.39 0 5.78 0 0 Z " fill="#E2E2E2" transform="translate(259,79)"/>
<path d="M0 0 C6 0 6 0 8 1 C8 6.28 8 11.56 8 17 C7.01 17 6.02 17 5 17 C5 14.69 5 12.38 5 10 C4.34 10 3.68 10 3 10 C3 12.64 3 15.28 3 18 C2.01 18 1.02 18 0 18 C0 12.06 0 6.12 0 0 Z " fill="#EAEAEA" transform="translate(135,79)"/>
<path d="M0 0 C1.32 0 2.64 0 4 0 C4.66 2.31 5.32 4.62 6 7 C6.33 4.69 6.66 2.38 7 0 C7.66 0 8.32 0 9 0 C9 5.61 9 11.22 9 17 C8.01 17 7.02 17 6 17 C5.34 14.69 4.68 12.38 4 10 C3.67 12.64 3.34 15.28 3 18 C2.01 18 1.02 18 0 18 C0 12.06 0 6.12 0 0 Z " fill="#DEDEDE" transform="translate(302,79)"/>
<path d="M0 0 C1.32 0 2.64 0 4 0 C5.2982126 5.76081841 6.25706972 11.08739655 6 17 C5.34 17 4.68 17 4 17 C4 16.01 4 15.02 4 14 C2.68 14 1.36 14 0 14 C0 15.32 0 16.64 0 18 C-0.99 18 -1.98 18 -3 18 C-2.51679152 11.7945858 -1.66681876 6.00054754 0 0 Z " fill="#C9C9C9" transform="translate(219,79)"/>
<path d="M0 0 C0.06058594 0.75925781 0.12117188 1.51851562 0.18359375 2.30078125 C0.26738281 3.29464844 0.35117187 4.28851563 0.4375 5.3125 C0.51871094 6.29863281 0.59992187 7.28476562 0.68359375 8.30078125 C0.91812559 11.09375599 0.91812559 11.09375599 2 14 C-3.62917348 13.59791618 -6.00386479 11.71069698 -10 8 C-9.4376049 4.73810844 -8.5859495 3.08865152 -6 1 C-3 0 -3 0 0 0 Z " fill="#2A2925" transform="translate(28,40)"/>
<path d="M0 0 C4.96404523 0.47276621 8.19179494 1.73582423 12 5 C12.6875 7.5 12.6875 7.5 12 10 C8.64354991 13.55388833 5.81279961 14.55229771 1 15 C1.33 14.01 1.66 13.02 2 12 C2.06740865 10.43881572 2.08514456 8.8749748 2.0625 7.3125 C2.05347656 6.50425781 2.04445313 5.69601563 2.03515625 4.86328125 C2.02355469 4.24839844 2.01195313 3.63351563 2 3 C1.34 2.67 0.68 2.34 0 2 C0 1.34 0 0.68 0 0 Z " fill="#2C2B28" transform="translate(81,39)"/>
<path d="M0 0 C2.64 0 5.28 0 8 0 C8 0.99 8 1.98 8 3 C6.35 3 4.7 3 3 3 C3 4.32 3 5.64 3 7 C4.32 7 5.64 7 7 7 C7 7.99 7 8.98 7 10 C5.68 10 4.36 10 3 10 C3 11.65 3 13.3 3 15 C4.65 15 6.3 15 8 15 C8 15.99 8 16.98 8 18 C5.36 18 2.72 18 0 18 C0 12.06 0 6.12 0 0 Z " fill="#DCDCDC" transform="translate(156,79)"/>
<path d="M0 0 C1.32 0.33 2.64 0.66 4 1 C4.32831974 5.76063621 4.41212424 8.17575152 2.25 12.5 C1.5075 13.325 0.765 14.15 0 15 C-1.32 15 -2.64 15 -4 15 C-4.51211281 8.59858988 -4.11888494 5.01989102 0 0 Z " fill="#2E2E2A" transform="translate(100,52)"/>
<path d="M0 0 C2.3125 0.0625 2.3125 0.0625 5 1 C7.454567 5.31665231 8.69276646 9.03517368 8 14 C7.01 14.66 6.02 15.32 5 16 C0.17970402 11.42071882 0.17970402 11.42071882 -0.33203125 7.375 C-0.31445137 4.89975234 -0.21923319 2.46515547 0 0 Z " fill="#2C2B26" transform="translate(8,52)"/>
<path d="M0 0 C1.32 0 2.64 0 4 0 C5.69832609 5.83799592 6.25287193 10.93107371 6 17 C5.34 17 4.68 17 4 17 C4 16.01 4 15.02 4 14 C2.68 14 1.36 14 0 14 C0 15.32 0 16.64 0 18 C-0.99 18 -1.98 18 -3 18 C-2.67 16.35 -2.34 14.7 -2 13 C-0.35 12.67 1.3 12.34 3 12 C2.34 11.01 1.68 10.02 1 9 C0.34 9.66 -0.32 10.32 -1 11 C-1.02688151 9.35425434 -1.04634123 7.70838587 -1.0625 6.0625 C-1.07410156 5.14597656 -1.08570313 4.22945313 -1.09765625 3.28515625 C-1 1 -1 1 0 0 Z " fill="#EBEBEB" transform="translate(283,79)"/>
<path d="M0 0 C0.99 0 1.98 0 3 0 C3 4.95 3 9.9 3 15 C3.99 15 4.98 15 6 15 C6 10.05 6 5.1 6 0 C6.66 0 7.32 0 8 0 C8.05382106 2.62527189 8.09358313 5.24944713 8.125 7.875 C8.14175781 8.62136719 8.15851563 9.36773437 8.17578125 10.13671875 C8.1933959 12.09194461 8.10320189 14.04742021 8 16 C7.34 16.66 6.68 17.32 6 18 C3.4375 17.75 3.4375 17.75 1 17 C-0.53266582 13.93466836 -0.10276471 10.73245728 -0.0625 7.375 C-0.05798828 6.66859375 -0.05347656 5.9621875 -0.04882812 5.234375 C-0.03703875 3.48954725 -0.01910324 1.744763 0 0 Z " fill="#F1F1F1" transform="translate(238,79)"/>
<path d="M0 0 C1.2065625 0.0309375 1.2065625 0.0309375 2.4375 0.0625 C2.7675 1.7125 3.0975 3.3625 3.4375 5.0625 C2.7775 5.0625 2.1175 5.0625 1.4375 5.0625 C0.7775 4.4025 0.1175 3.7425 -0.5625 3.0625 C-0.14322372 5.99743396 0.31674008 6.95239537 2.5625 9 C3.18125 9.680625 3.8 10.36125 4.4375 11.0625 C4.27599795 14.45404295 3.85453243 15.64546757 1.4375 18.0625 C-0.6875 17.6875 -0.6875 17.6875 -2.5625 17.0625 C-2.8925 15.4125 -3.2225 13.7625 -3.5625 12.0625 C-2.9025 12.0625 -2.2425 12.0625 -1.5625 12.0625 C-1.5625 13.0525 -1.5625 14.0425 -1.5625 15.0625 C-0.5725 15.0625 0.4175 15.0625 1.4375 15.0625 C0.21922581 11.46573514 0.21922581 11.46573514 -2.1875 8.625 C-3.5625 7.0625 -3.5625 7.0625 -3.8125 3.9375 C-3.47748406 0.08481668 -3.47748406 0.08481668 0 0 Z " fill="#ECECEC" transform="translate(180.5625,78.9375)"/>
<path d="M0 0 C1.32 0.33 2.64 0.66 4 1 C4 6.61 4 12.22 4 18 C2.68 18 1.36 18 0 18 C0 12.06 0 6.12 0 0 Z " fill="#FBE688" transform="translate(54,8)"/>
<path d="M0 0 C1.98 0.495 1.98 0.495 4 1 C4 5.29 4 9.58 4 14 C2.68 14.33 1.36 14.66 0 15 C-1 14 -1 14 -1.1328125 11.09375 C-1.13023438 9.9078125 -1.12765625 8.721875 -1.125 7.5 C-1.12757812 6.3140625 -1.13015625 5.128125 -1.1328125 3.90625 C-1 1 -1 1 0 0 Z " fill="#E5D17D" transform="translate(63,39)"/>
<path d="M0 0 C2.97 0 5.94 0 9 0 C9 0.66 9 1.32 9 2 C8.01 2 7.02 2 6 2 C6 7.28 6 12.56 6 18 C5.01 18 4.02 18 3 18 C3 13.05 3 8.1 3 3 C2.01 3 1.02 3 0 3 C0 2.01 0 1.02 0 0 Z " fill="#E1E1E1" transform="translate(323,79)"/>
<path d="M0 0 C2.0625 0.4375 2.0625 0.4375 4 1 C4.02696365 2.79158489 4.04637917 4.58328473 4.0625 6.375 C4.07410156 7.37273438 4.08570312 8.37046875 4.09765625 9.3984375 C4 12 4 12 3 14 C1.68 13.67 0.36 13.34 -1 13 C-1.02686553 11.02090602 -1.04633375 9.04171029 -1.0625 7.0625 C-1.07410156 5.96035156 -1.08570313 4.85820312 -1.09765625 3.72265625 C-1 1 -1 1 0 0 Z " fill="#E0CD7B" transform="translate(63,13)"/>
<path d="M0 0 C1.98 0.495 1.98 0.495 4 1 C4 4.63 4 8.26 4 12 C2.68 12.33 1.36 12.66 0 13 C-1 12 -1 12 -1.1328125 9.53125 C-1.13023438 8.5309375 -1.12765625 7.530625 -1.125 6.5 C-1.12757812 5.4996875 -1.13015625 4.499375 -1.1328125 3.46875 C-1 1 -1 1 0 0 Z " fill="#E4D07D" transform="translate(37,40)"/>
<path d="M0 0 C1.32 0.33 2.64 0.66 4 1 C4 5.62 4 10.24 4 15 C2.68 15 1.36 15 0 15 C0 10.05 0 5.1 0 0 Z " fill="#FAE487" transform="translate(54,39)"/>
<path d="M0 0 C0.99 0 1.98 0 3 0 C3 4.95 3 9.9 3 15 C1.68 15 0.36 15 -1 15 C-1.02685412 12.68756208 -1.04632841 10.3750373 -1.0625 8.0625 C-1.07410156 6.77472656 -1.08570313 5.48695312 -1.09765625 4.16015625 C-1 1 -1 1 0 0 Z " fill="#F9E487" transform="translate(46,39)"/>
<path d="M0 0 C0.99 0.33 1.98 0.66 3 1 C3 4.96 3 8.92 3 13 C1.68 13 0.36 13 -1 13 C-1.02686553 11.02090602 -1.04633375 9.04171029 -1.0625 7.0625 C-1.07410156 5.96035156 -1.08570313 4.85820312 -1.09765625 3.72265625 C-1 1 -1 1 0 0 Z " fill="#F7E286" transform="translate(46,13)"/>
<path d="M0 0 C1.98 0.495 1.98 0.495 4 1 C4 3.97 4 6.94 4 10 C2.68 10.33 1.36 10.66 0 11 C-1 10 -1 10 -1.1328125 7.96875 C-1.13023438 7.1540625 -1.12765625 6.339375 -1.125 5.5 C-1.12757812 4.6853125 -1.13015625 3.870625 -1.1328125 3.03125 C-1 1 -1 1 0 0 Z " fill="#DFCC7B" transform="translate(80,41)"/>
<path d="M0 0 C0.99 0.33 1.98 0.66 3 1 C3 4.96 3 8.92 3 13 C1.68 13 0.36 13 -1 13 C-1.02686553 11.02090602 -1.04633375 9.04171029 -1.0625 7.0625 C-1.07410156 5.96035156 -1.08570312 4.85820313 -1.09765625 3.72265625 C-1 1 -1 1 0 0 Z " fill="#FBE688" transform="translate(72,40)"/>
<path d="M0 0 C2.12508244 3.18762365 2.5020163 5.26512223 3 9 C2.34 9 1.68 9 1 9 C1 19.56 1 30.12 1 41 C0.67 41 0.34 41 0 41 C0 27.47 0 13.94 0 0 Z " fill="#656565" transform="translate(336,23)"/>
<path d="M0 0 C2.64 0 5.28 0 8 0 C8 0.66 8 1.32 8 2 C7.01 2 6.02 2 5 2 C5 6.95 5 11.9 5 17 C4.34 17 3.68 17 3 17 C3 12.05 3 7.1 3 2 C2.01 2 1.02 2 0 2 C0 1.34 0 0.68 0 0 Z " fill="#FFFFFF" transform="translate(197,79)"/>
<path d="M0 0 C0.66 0 1.32 0 2 0 C2 5.61 2 11.22 2 17 C1.01 17 0.02 17 -1 17 C-1.33 14.69 -1.66 12.38 -2 10 C-1.34 10 -0.68 10 0 10 C0 6.7 0 3.4 0 0 Z " fill="#FEFEFE" transform="translate(309,79)"/>
<path d="M0 0 C1.32 0 2.64 0 4 0 C4.33 1.65 4.66 3.3 5 5 C4.34 5 3.68 5 3 5 C2.896875 5.61875 2.79375 6.2375 2.6875 6.875 C2 9 2 9 -1 11 C-1.02688151 9.35425434 -1.04634123 7.70838587 -1.0625 6.0625 C-1.07410156 5.14597656 -1.08570313 4.22945313 -1.09765625 3.28515625 C-1 1 -1 1 0 0 Z " fill="#E2E2E2" transform="translate(283,79)"/>
<path d="M0 0 C0.99 0.33 1.98 0.66 3 1 C3 4.3 3 7.6 3 11 C1.68 10.67 0.36 10.34 -1 10 C-1.02689216 8.52093108 -1.04634621 7.04172517 -1.0625 5.5625 C-1.07410156 4.73878906 -1.08570312 3.91507813 -1.09765625 3.06640625 C-1 1 -1 1 0 0 Z " fill="#F9E487" transform="translate(29,41)"/>
<path d="M0 0 C0.33 0 0.66 0 1 0 C1 10.89 1 21.78 1 33 C-0.9451 30.08235 -1.45276317 28.37462715 -2 25 C-1.34 25 -0.68 25 0 25 C0 16.75 0 8.5 0 0 Z " fill="#696969" transform="translate(348,7)"/>
<path d="M0 0 C1.32 0 2.64 0 4 0 C4 1.98 4 3.96 4 6 C3.34 6 2.68 6 2 6 C1.67 6.99 1.34 7.98 1 9 C0.34 9 -0.32 9 -1 9 C-1.125 2.25 -1.125 2.25 0 0 Z " fill="#F6F6F6" transform="translate(219,79)"/>
<path d="M0 0 C0 2.31 0 4.62 0 7 C-1.65 7 -3.3 7 -5 7 C-5 5.02 -5 3.04 -5 1 C-3 0 -3 0 0 0 Z " fill="#A5A5A5" transform="translate(143,80)"/>
<path d="M0 0 C2 3 2 3 2 6 C0.35 6.33 -1.3 6.66 -3 7 C-3 5.02 -3 3.04 -3 1 C-2.34 1.66 -1.68 2.32 -1 3 C-0.67 2.01 -0.34 1.02 0 0 Z " fill="#838383" transform="translate(284,85)"/>
<path d="M0 0 C0.99 0.33 1.98 0.66 3 1 C3 2.65 3 4.3 3 6 C2.01 6 1.02 6 0 6 C0 4.02 0 2.04 0 0 Z " fill="#5A5A5A" transform="translate(262,81)"/>
</svg>
